<svg viewBox="0 0 80 80" fill="none" xmlns="http://www.w3.org/2000/svg">
  <path clip-rule="evenodd" d="m56,22l-32,0c-1.1,0 -2,0.9 -2,2l0,21.27l12.65,-2.96c0.9,-0.2 1.81,-0.31 2.73,-0.31l5.24,0c0.92,0 1.83,0.11 2.73,0.31l12.65,2.96l0,-21.27c0,-1.1 -0.9,-2 -2,-2zm-32,-2c-2.21,0 -4,1.79 -4,4l0,32c0,2.21 1.79,4 4,4l32,0c2.21,0 4,-1.79 4,-4l0,-32c0,-2.21 -1.79,-4 -4,-4l-32,0zm6.91,14.55c2.01,0 3.64,-1.63 3.64,-3.64c0,-2.01 -1.63,-3.64 -3.64,-3.64c-2.01,0 -3.64,1.63 -3.64,3.64c0,2.01 1.63,3.64 3.64,3.64z" fill="#CDCDCD" fill-rule="evenodd" id="svg_1"/>
</svg>
